<mxfile host="Electron" agent="Mozilla/5.0 (Windows NT 10.0; Win64; x64) AppleWebKit/537.36 (KHTML, like Gecko) draw.io/24.7.17 Chrome/128.0.6613.36 Electron/32.0.1 Safari/537.36" version="24.7.17">
  <diagram id="C5RBs43oDa-KdzZeNtuy" name="Page-1">
    <mxGraphModel dx="1185" dy="703" grid="1" gridSize="10" guides="1" tooltips="1" connect="1" arrows="1" fold="1" page="1" pageScale="1" pageWidth="827" pageHeight="1169" math="0" shadow="0">
      <root>
        <mxCell id="WIyWlLk6GJQsqaUBKTNV-0" />
        <mxCell id="WIyWlLk6GJQsqaUBKTNV-1" parent="WIyWlLk6GJQsqaUBKTNV-0" />
        <mxCell id="LwQACyYHq6MTiMR1Qcqc-0" value="固定头部" style="rounded=0;whiteSpace=wrap;html=1;" parent="WIyWlLk6GJQsqaUBKTNV-1" vertex="1">
          <mxGeometry x="190" y="300" width="120" height="30" as="geometry" />
        </mxCell>
        <mxCell id="i9UQ7lmCwHt1JStKgp6u-0" value="剩余长度" style="rounded=0;whiteSpace=wrap;html=1;" vertex="1" parent="WIyWlLk6GJQsqaUBKTNV-1">
          <mxGeometry x="310" y="300" width="120" height="30" as="geometry" />
        </mxCell>
        <mxCell id="i9UQ7lmCwHt1JStKgp6u-1" value="数据负载" style="rounded=0;whiteSpace=wrap;html=1;" vertex="1" parent="WIyWlLk6GJQsqaUBKTNV-1">
          <mxGeometry x="430" y="300" width="260" height="30" as="geometry" />
        </mxCell>
        <mxCell id="i9UQ7lmCwHt1JStKgp6u-2" value="校验位" style="rounded=0;whiteSpace=wrap;html=1;" vertex="1" parent="WIyWlLk6GJQsqaUBKTNV-1">
          <mxGeometry x="690" y="300" width="60" height="30" as="geometry" />
        </mxCell>
        <mxCell id="i9UQ7lmCwHt1JStKgp6u-9" value="0x55 0xAA" style="text;html=1;align=center;verticalAlign=middle;whiteSpace=wrap;rounded=0;" vertex="1" parent="WIyWlLk6GJQsqaUBKTNV-1">
          <mxGeometry x="200" y="380" width="80" height="30" as="geometry" />
        </mxCell>
        <mxCell id="i9UQ7lmCwHt1JStKgp6u-12" value="指示剩余字节的长度(计算除头部、尾部所有字节)" style="text;html=1;align=center;verticalAlign=middle;whiteSpace=wrap;rounded=0;" vertex="1" parent="WIyWlLk6GJQsqaUBKTNV-1">
          <mxGeometry x="312.5" y="390" width="115" height="30" as="geometry" />
        </mxCell>
        <mxCell id="i9UQ7lmCwHt1JStKgp6u-14" value="2字节" style="text;html=1;align=center;verticalAlign=middle;whiteSpace=wrap;rounded=0;" vertex="1" parent="WIyWlLk6GJQsqaUBKTNV-1">
          <mxGeometry x="210" y="430" width="60" height="30" as="geometry" />
        </mxCell>
        <mxCell id="i9UQ7lmCwHt1JStKgp6u-15" value="2字节" style="text;html=1;align=center;verticalAlign=middle;whiteSpace=wrap;rounded=0;" vertex="1" parent="WIyWlLk6GJQsqaUBKTNV-1">
          <mxGeometry x="340" y="430" width="60" height="30" as="geometry" />
        </mxCell>
        <mxCell id="i9UQ7lmCwHt1JStKgp6u-16" value="不定长" style="text;html=1;align=center;verticalAlign=middle;whiteSpace=wrap;rounded=0;" vertex="1" parent="WIyWlLk6GJQsqaUBKTNV-1">
          <mxGeometry x="530" y="430" width="60" height="30" as="geometry" />
        </mxCell>
        <mxCell id="i9UQ7lmCwHt1JStKgp6u-18" value="1字节" style="text;html=1;align=center;verticalAlign=middle;whiteSpace=wrap;rounded=0;" vertex="1" parent="WIyWlLk6GJQsqaUBKTNV-1">
          <mxGeometry x="690" y="430" width="60" height="30" as="geometry" />
        </mxCell>
        <mxCell id="i9UQ7lmCwHt1JStKgp6u-21" value="crc8or校验和(计算除尾部所有字节)" style="text;html=1;align=center;verticalAlign=middle;whiteSpace=wrap;rounded=0;" vertex="1" parent="WIyWlLk6GJQsqaUBKTNV-1">
          <mxGeometry x="685" y="380" width="70" height="30" as="geometry" />
        </mxCell>
        <mxCell id="i9UQ7lmCwHt1JStKgp6u-43" value="" style="edgeStyle=orthogonalEdgeStyle;rounded=0;orthogonalLoop=1;jettySize=auto;html=1;entryX=0.5;entryY=0;entryDx=0;entryDy=0;" edge="1" parent="WIyWlLk6GJQsqaUBKTNV-1" target="i9UQ7lmCwHt1JStKgp6u-39">
          <mxGeometry relative="1" as="geometry">
            <mxPoint x="499.9999999999998" y="510" as="sourcePoint" />
          </mxGeometry>
        </mxCell>
        <mxCell id="i9UQ7lmCwHt1JStKgp6u-24" value="init" style="rounded=1;whiteSpace=wrap;html=1;" vertex="1" parent="WIyWlLk6GJQsqaUBKTNV-1">
          <mxGeometry x="475" y="500" width="50" height="30" as="geometry" />
        </mxCell>
        <mxCell id="i9UQ7lmCwHt1JStKgp6u-34" value="header_state" style="text;html=1;align=center;verticalAlign=middle;whiteSpace=wrap;rounded=0;" vertex="1" parent="WIyWlLk6GJQsqaUBKTNV-1">
          <mxGeometry x="330" y="650" width="60" height="30" as="geometry" />
        </mxCell>
        <mxCell id="i9UQ7lmCwHt1JStKgp6u-49" value="" style="edgeStyle=orthogonalEdgeStyle;rounded=0;orthogonalLoop=1;jettySize=auto;html=1;entryX=0.5;entryY=0;entryDx=0;entryDy=0;" edge="1" parent="WIyWlLk6GJQsqaUBKTNV-1" source="i9UQ7lmCwHt1JStKgp6u-35" target="i9UQ7lmCwHt1JStKgp6u-46">
          <mxGeometry relative="1" as="geometry" />
        </mxCell>
        <mxCell id="i9UQ7lmCwHt1JStKgp6u-35" value="" style="rounded=1;whiteSpace=wrap;html=1;" vertex="1" parent="WIyWlLk6GJQsqaUBKTNV-1">
          <mxGeometry x="400" y="640" width="200" height="50" as="geometry" />
        </mxCell>
        <mxCell id="i9UQ7lmCwHt1JStKgp6u-37" value="trans(length)" style="ellipse;whiteSpace=wrap;html=1;fillColor=#d5e8d4;strokeColor=#82b366;" vertex="1" parent="WIyWlLk6GJQsqaUBKTNV-1">
          <mxGeometry x="412.5" y="650" width="80" height="30" as="geometry" />
        </mxCell>
        <mxCell id="i9UQ7lmCwHt1JStKgp6u-55" value="" style="edgeStyle=orthogonalEdgeStyle;rounded=0;orthogonalLoop=1;jettySize=auto;html=1;entryX=0.5;entryY=0;entryDx=0;entryDy=0;" edge="1" parent="WIyWlLk6GJQsqaUBKTNV-1" source="i9UQ7lmCwHt1JStKgp6u-39" target="i9UQ7lmCwHt1JStKgp6u-35">
          <mxGeometry relative="1" as="geometry" />
        </mxCell>
        <mxCell id="i9UQ7lmCwHt1JStKgp6u-39" value="" style="rounded=1;whiteSpace=wrap;html=1;" vertex="1" parent="WIyWlLk6GJQsqaUBKTNV-1">
          <mxGeometry x="400" y="560" width="200" height="60" as="geometry" />
        </mxCell>
        <mxCell id="i9UQ7lmCwHt1JStKgp6u-42" value="init_state" style="text;html=1;align=center;verticalAlign=middle;whiteSpace=wrap;rounded=0;" vertex="1" parent="WIyWlLk6GJQsqaUBKTNV-1">
          <mxGeometry x="330" y="580" width="60" height="30" as="geometry" />
        </mxCell>
        <mxCell id="i9UQ7lmCwHt1JStKgp6u-45" value="length_state" style="text;html=1;align=center;verticalAlign=middle;whiteSpace=wrap;rounded=0;" vertex="1" parent="WIyWlLk6GJQsqaUBKTNV-1">
          <mxGeometry x="330" y="720" width="60" height="30" as="geometry" />
        </mxCell>
        <mxCell id="i9UQ7lmCwHt1JStKgp6u-61" value="" style="edgeStyle=orthogonalEdgeStyle;rounded=0;orthogonalLoop=1;jettySize=auto;html=1;" edge="1" parent="WIyWlLk6GJQsqaUBKTNV-1" source="i9UQ7lmCwHt1JStKgp6u-46">
          <mxGeometry relative="1" as="geometry">
            <mxPoint x="500" y="780" as="targetPoint" />
          </mxGeometry>
        </mxCell>
        <mxCell id="i9UQ7lmCwHt1JStKgp6u-46" value="" style="rounded=1;whiteSpace=wrap;html=1;" vertex="1" parent="WIyWlLk6GJQsqaUBKTNV-1">
          <mxGeometry x="400" y="710" width="200" height="50" as="geometry" />
        </mxCell>
        <mxCell id="i9UQ7lmCwHt1JStKgp6u-48" value="trans(sum)" style="ellipse;whiteSpace=wrap;html=1;fillColor=#d5e8d4;strokeColor=#82b366;" vertex="1" parent="WIyWlLk6GJQsqaUBKTNV-1">
          <mxGeometry x="420" y="720" width="70" height="30" as="geometry" />
        </mxCell>
        <mxCell id="i9UQ7lmCwHt1JStKgp6u-53" value="sig_header" style="rounded=1;whiteSpace=wrap;html=1;" vertex="1" parent="WIyWlLk6GJQsqaUBKTNV-1">
          <mxGeometry x="410" y="580" width="80" height="20" as="geometry" />
        </mxCell>
        <mxCell id="i9UQ7lmCwHt1JStKgp6u-54" value="trans(header)" style="ellipse;whiteSpace=wrap;html=1;fillColor=#d5e8d4;strokeColor=#82b366;" vertex="1" parent="WIyWlLk6GJQsqaUBKTNV-1">
          <mxGeometry x="500" y="575" width="100" height="30" as="geometry" />
        </mxCell>
        <mxCell id="i9UQ7lmCwHt1JStKgp6u-57" value="sum_state" style="text;html=1;align=center;verticalAlign=middle;whiteSpace=wrap;rounded=0;" vertex="1" parent="WIyWlLk6GJQsqaUBKTNV-1">
          <mxGeometry x="330" y="790" width="60" height="30" as="geometry" />
        </mxCell>
        <mxCell id="i9UQ7lmCwHt1JStKgp6u-66" value="" style="edgeStyle=orthogonalEdgeStyle;rounded=0;orthogonalLoop=1;jettySize=auto;html=1;entryX=0.5;entryY=0;entryDx=0;entryDy=0;" edge="1" parent="WIyWlLk6GJQsqaUBKTNV-1" source="i9UQ7lmCwHt1JStKgp6u-58" target="i9UQ7lmCwHt1JStKgp6u-63">
          <mxGeometry relative="1" as="geometry" />
        </mxCell>
        <mxCell id="i9UQ7lmCwHt1JStKgp6u-58" value="" style="rounded=1;whiteSpace=wrap;html=1;" vertex="1" parent="WIyWlLk6GJQsqaUBKTNV-1">
          <mxGeometry x="400" y="780" width="200" height="50" as="geometry" />
        </mxCell>
        <mxCell id="i9UQ7lmCwHt1JStKgp6u-60" value="trans(get)" style="ellipse;whiteSpace=wrap;html=1;fillColor=#d5e8d4;strokeColor=#82b366;" vertex="1" parent="WIyWlLk6GJQsqaUBKTNV-1">
          <mxGeometry x="415" y="790" width="75" height="30" as="geometry" />
        </mxCell>
        <mxCell id="i9UQ7lmCwHt1JStKgp6u-62" value="get_state" style="text;html=1;align=center;verticalAlign=middle;whiteSpace=wrap;rounded=0;" vertex="1" parent="WIyWlLk6GJQsqaUBKTNV-1">
          <mxGeometry x="330" y="860" width="60" height="30" as="geometry" />
        </mxCell>
        <mxCell id="i9UQ7lmCwHt1JStKgp6u-63" value="get data-&amp;gt;handle&amp;nbsp;&amp;nbsp;" style="rounded=1;whiteSpace=wrap;html=1;" vertex="1" parent="WIyWlLk6GJQsqaUBKTNV-1">
          <mxGeometry x="400" y="850" width="200" height="50" as="geometry" />
        </mxCell>
        <mxCell id="i9UQ7lmCwHt1JStKgp6u-68" value="trans(init)" style="ellipse;whiteSpace=wrap;html=1;fillColor=#f8cecc;strokeColor=#b85450;" vertex="1" parent="WIyWlLk6GJQsqaUBKTNV-1">
          <mxGeometry x="512.5" y="790" width="75" height="30" as="geometry" />
        </mxCell>
        <mxCell id="i9UQ7lmCwHt1JStKgp6u-69" value="trans(init)" style="ellipse;whiteSpace=wrap;html=1;fillColor=#f8cecc;strokeColor=#b85450;" vertex="1" parent="WIyWlLk6GJQsqaUBKTNV-1">
          <mxGeometry x="512.5" y="720" width="75" height="30" as="geometry" />
        </mxCell>
        <mxCell id="i9UQ7lmCwHt1JStKgp6u-70" value="trans(init)" style="ellipse;whiteSpace=wrap;html=1;fillColor=#f8cecc;strokeColor=#b85450;" vertex="1" parent="WIyWlLk6GJQsqaUBKTNV-1">
          <mxGeometry x="610" y="860" width="75" height="30" as="geometry" />
        </mxCell>
        <mxCell id="i9UQ7lmCwHt1JStKgp6u-71" value="trans(init)" style="ellipse;whiteSpace=wrap;html=1;fillColor=#f8cecc;strokeColor=#b85450;" vertex="1" parent="WIyWlLk6GJQsqaUBKTNV-1">
          <mxGeometry x="512.5" y="650" width="75" height="30" as="geometry" />
        </mxCell>
      </root>
    </mxGraphModel>
  </diagram>
</mxfile>
